<?xml version="1.0" encoding="UTF-8" standalone="no"?>
<!-- Created with Inkscape (http://www.inkscape.org/) -->

<svg
   xmlns:dc="http://purl.org/dc/elements/1.1/"
   xmlns:cc="http://creativecommons.org/ns#"
   xmlns:rdf="http://www.w3.org/1999/02/22-rdf-syntax-ns#"
   xmlns:svg="http://www.w3.org/2000/svg"
   xmlns="http://www.w3.org/2000/svg"
   xmlns:sodipodi="http://sodipodi.sourceforge.net/DTD/sodipodi-0.dtd"
   xmlns:inkscape="http://www.inkscape.org/namespaces/inkscape"
   width="412pt"
   height="412pt"
   viewBox="0 0 145.34444 145.34445"
   version="1.1"
   id="svg8"
   inkscape:version="0.92.4 5da689c313, 2019-01-14"
   sodipodi:docname="color.svg">
  <defs
     id="defs2" />
  <sodipodi:namedview
     id="base"
     pagecolor="#ffffff"
     bordercolor="#666666"
     borderopacity="1.0"
     inkscape:pageopacity="0.0"
     inkscape:pageshadow="2"
     inkscape:zoom="0.35"
     inkscape:cx="-898.58808"
     inkscape:cy="-16.325652"
     inkscape:document-units="mm"
     inkscape:current-layer="layer1"
     showgrid="false"
     units="pt"
     inkscape:window-width="1720"
     inkscape:window-height="1384"
     inkscape:window-x="0"
     inkscape:window-y="28"
     inkscape:window-maximized="0" />
  <metadata
     id="metadata5">
    <rdf:RDF>
      <cc:Work
         rdf:about="">
        <dc:format>image/svg+xml</dc:format>
        <dc:type
           rdf:resource="http://purl.org/dc/dcmitype/StillImage" />
        <dc:title />
      </cc:Work>
    </rdf:RDF>
  </metadata>
  <g
     inkscape:label="Layer 1"
     inkscape:groupmode="layer"
     id="layer1"
     transform="translate(0,-151.65554)">
    <path
       style="opacity:1;fill:#070026;fill-opacity:1;stroke:none;stroke-width:26.6289978;stroke-miterlimit:4;stroke-dasharray:none;stroke-dashoffset:0;stroke-opacity:1"
       d="M 252.39102,498.19847 C 211.57504,494.01841 172.70948,478.82703 140.00825,454.27141 95.815155,421.08646 65.340582,372.87701 54.526269,319.04263 43.719039,265.24353 53.333417,207.64373 80.852343,161.32295 118.15486,98.534118 180.49464,58.573643 252.74816,51.135875 c 9.37291,-0.964846 35.2691,-0.946244 44.2972,0.03182 43.92943,4.759121 83.28115,20.789422 117.56155,47.889837 9.54827,7.548388 28.03897,26.041318 35.66254,35.666838 39.11226,49.38313 55.5494,110.86505 46.40417,173.57143 -6.96808,47.77823 -30.49108,93.31936 -65.92266,127.62792 -36.36466,35.21206 -82.24658,56.69905 -132.44788,62.02672 -10.71717,1.13737 -35.89973,1.27342 -45.91206,0.24803 z"
       id="color-circle"
       inkscape:connector-curvature="0"
       transform="matrix(0.26458333,0,0,0.26458333,0,151.65554)"
       inkscape:label="#path6396" />
  </g>
</svg>
